<?xml version="1.0" standalone="no"?>
<!DOCTYPE svg PUBLIC "-//W3C//DTD SVG 20010904//EN"
 "http://www.w3.org/TR/2001/REC-SVG-20010904/DTD/svg10.dtd">
<svg version="1.0" xmlns="http://www.w3.org/2000/svg"
 width="200.000000pt" height="48.000000pt" viewBox="0 0 1040.000000 192.000000"
 preserveAspectRatio="xMidYMid meet">

<g transform="translate(0.000000,192.000000) scale(0.100000,-0.100000)"
fill="#021F79" stroke="none">
<path d="M2298 1583 c-55 -34 -64 -105 -20 -154 60 -68 172 -25 172 65 -1 84
-83 132 -152 89z"/>
<path d="M894 1566 c-362 -83 -775 -449 -870 -772 -36 -124 -15 -255 54 -327
79 -83 236 -110 403 -68 215 54 505 246 649 430 l55 70 5 -232 5 -232 88 -3
87 -3 0 576 0 575 -90 0 -90 0 0 -37 c0 -34 -1 -35 -17 -21 -58 51 -171 68
-279 44z m235 -157 c61 -22 78 -110 41 -216 -107 -306 -555 -653 -842 -653
-120 0 -164 37 -162 134 4 116 93 268 248 421 148 147 305 247 471 301 77 26
191 31 244 13z"/>
<path d="M1550 1005 l0 -575 85 0 85 0 0 575 0 575 -85 0 -85 0 0 -575z"/>
<path d="M1910 1005 l0 -575 85 0 85 0 0 575 0 575 -85 0 -85 0 0 -575z"/>
<path d="M6670 1005 l0 -575 85 0 85 0 0 35 c0 41 4 42 50 11 59 -40 123 -56
220 -56 180 0 317 86 394 249 29 62 31 73 31 181 0 110 -2 118 -34 187 -41 87
-119 167 -203 206 -132 62 -312 53 -418 -23 -15 -11 -31 -20 -34 -20 -3 0 -6
86 -6 190 l0 190 -85 0 -85 0 0 -575z m565 97 c88 -45 136 -129 136 -241 0
-89 -14 -140 -54 -193 -50 -65 -114 -93 -212 -92 -62 0 -89 5 -121 21 -48 25
-100 82 -122 132 -23 52 -22 183 1 243 22 57 100 131 154 147 59 16 171 8 218
-17z"/>
<path d="M9600 1005 l0 -575 85 0 85 0 2 177 3 178 62 3 62 3 54 -73 c30 -40
89 -121 131 -180 l78 -108 104 0 c82 0 103 3 98 13 -4 6 -72 100 -149 207 -78
107 -148 205 -155 216 -12 20 -2 36 133 208 81 102 147 188 147 191 0 3 -42 5
-94 5 l-95 0 -128 -165 -128 -165 -62 0 -63 0 0 320 0 320 -85 0 -85 0 0 -575z"/>
<path d="M2911 1280 c-29 -4 -86 -24 -126 -44 -318 -157 -310 -628 12 -778
120 -57 297 -51 397 12 26 17 49 30 51 30 3 0 5 -16 5 -35 l0 -35 85 0 85 0 0
420 0 420 -85 0 -85 0 0 -35 0 -35 -52 29 c-90 49 -184 66 -287 51z m213 -184
c90 -53 131 -141 124 -268 -5 -95 -35 -158 -97 -203 -152 -111 -366 -44 -417
131 -34 118 2 260 83 321 79 60 222 69 307 19z"/>
<path d="M3955 1280 c-57 -8 -113 -30 -155 -60 -37 -27 -40 -26 -40 15 l0 35
-85 0 -85 0 0 -420 0 -420 85 0 85 0 0 243 c0 288 7 324 75 392 68 69 179 86
265 43 83 -42 85 -51 88 -385 l3 -293 85 0 85 0 -3 318 -3 317 -28 57 c-16 32
-46 73 -68 91 -64 55 -195 84 -304 67z"/>
<path d="M4812 1279 c-239 -41 -392 -294 -327 -542 29 -113 84 -195 168 -250
84 -55 143 -70 261 -65 116 4 179 28 257 97 46 41 103 127 114 174 l7 27 -85
0 -86 0 -22 -40 c-13 -24 -44 -54 -73 -72 -45 -29 -57 -32 -125 -33 -92 0
-146 25 -191 87 -113 155 -52 408 109 457 47 14 104 14 152 1 45 -13 112 -70
129 -110 l12 -30 89 0 c56 0 89 4 89 11 0 24 -53 120 -91 163 -90 102 -240
150 -387 125z"/>
<path d="M5743 1280 c-129 -19 -258 -115 -313 -231 -106 -225 -20 -484 199
-592 63 -31 70 -32 186 -32 140 0 182 12 275 81 60 44 146 156 134 175 -3 5
-42 9 -86 9 -79 0 -82 -1 -115 -35 -59 -60 -106 -79 -203 -79 -94 -1 -141 16
-192 71 -27 28 -67 106 -68 131 0 9 75 12 341 12 l342 0 -6 78 c-10 145 -64
250 -173 332 -89 68 -207 97 -321 80z m160 -164 c74 -27 127 -83 151 -163 l7
-23 -247 0 -246 0 6 32 c7 35 47 90 87 120 61 46 167 60 242 34z"/>
<path d="M7993 1280 c-77 -11 -176 -62 -232 -118 -212 -212 -153 -571 116
-704 58 -29 78 -33 165 -36 112 -5 166 7 234 49 24 16 47 29 49 29 3 0 5 -16
5 -35 l0 -36 88 3 87 3 3 418 2 417 -89 0 -90 0 -3 -35 -3 -35 -35 24 c-72 48
-193 71 -297 56z m211 -184 c86 -50 125 -125 126 -242 0 -94 -22 -157 -76
-210 -75 -75 -213 -95 -310 -46 -175 89 -195 369 -35 484 52 37 95 48 177 44
56 -2 82 -9 118 -30z"/>
<path d="M9065 1284 c-11 -2 -43 -9 -71 -15 -28 -5 -72 -23 -98 -39 -26 -17
-49 -30 -51 -30 -3 0 -5 16 -5 35 l0 35 -85 0 -85 0 0 -420 0 -420 85 0 85 0
0 229 c0 251 8 317 45 373 41 62 94 90 178 95 95 6 151 -21 185 -87 21 -43 22
-54 22 -328 l0 -283 88 3 87 3 3 240 c4 361 -15 458 -108 538 -57 48 -202 86
-275 71z"/>
<path d="M2260 850 l0 -420 90 0 90 0 0 420 0 420 -90 0 -90 0 0 -420z"/>
</g>
</svg>
