<svg width="200" height="52" viewBox="0 0 200 52" fill="none" xmlns="http://www.w3.org/2000/svg">
<path fill-rule="evenodd" clip-rule="evenodd" d="M16.4219 12C14.8012 12 10.5076 12.2516 8.28158 12.5988L7.21941 18.5024C8.95179 18.1503 12.4425 18.0138 13.2972 18.0138C16.0239 18.0138 16.8677 19.0818 16.8677 20.6335C16.8677 21.1192 16.6243 22.7197 16.6243 22.7197C14.6885 22.5266 13.0519 22.43 11.9608 22.43C4.67021 22.43 1.84375 25.631 1.1496 30.2394C1.04887 30.9182 1 31.5483 1 32.1315C1 35.7675 3.03358 38 7.39894 38C9.32181 38 11.4701 37.1778 14.2437 35.945L13.9834 37.3202H21.9302L24.7048 21.9911C24.9521 20.5847 25 19.1296 25 18.403C25 14.0852 22.6203 12 16.4219 12ZM14.9857 31.8399C13.3012 32.5675 12.2101 32.8094 11.2676 32.8094C9.67985 32.8094 9.03557 31.9852 9.03557 30.8704C9.03557 30.6763 9.03557 30.4813 9.08344 30.2394C9.28291 28.9296 10.0269 27.6197 12.4066 27.6197C13.3501 27.6197 14.3414 27.7172 15.6818 27.9123L14.9857 31.8399Z" fill="#02142E"/>
<path fill-rule="evenodd" clip-rule="evenodd" d="M33.7378 37H26L32.2758 1H40L33.7378 37Z" fill="#02142E"/>
<path fill-rule="evenodd" clip-rule="evenodd" d="M54.6183 31.4396C52.8958 31.7958 51.4967 31.9325 50.6453 31.9325C47.9324 31.9325 47.093 30.8562 47.093 29.2899C47.093 28.7999 47.1684 28.2313 47.2676 27.6429L48.8989 18.4055H56.9303L58 12.339H49.9725L51.0888 6H43.1933L39.2967 27.9194C39.0486 29.3401 39 30.808 39 31.5419C39 35.8965 41.3685 38 47.5365 38C49.1489 38 51.3468 37.7452 53.5626 37.3949L54.6183 31.4396Z" fill="#02142E"/>
<path fill-rule="evenodd" clip-rule="evenodd" d="M104.698 38C102.378 38 97.7886 37.557 93 36.3315L99.2188 1H107.117L104.796 14.151C107.019 12.9729 109.49 11.696 112.056 11.696C117.187 11.696 120 14.7884 120 20.2844C120 21.3649 119.949 23.2298 119.653 25.0937C118.418 33.4364 114.174 38 104.698 38ZM111.707 22.1987C111.707 19.352 110.472 18.2725 108.251 18.2725C107.019 18.2725 105.669 18.6485 103.843 19.5809L101.736 31.535C102.773 31.7797 104.452 31.9149 105.39 31.9149C108.994 31.9149 110.82 29.8043 111.509 25.0937C111.707 23.8662 111.707 22.8854 111.707 22.1987Z" fill="#02142E"/>
<path fill-rule="evenodd" clip-rule="evenodd" d="M160.67 37L163.663 20.8334C163.703 20.6245 163.737 20.2374 163.737 19.9976C163.737 18.609 162.88 17.9378 161.067 17.9378C159.959 17.9378 158.75 18.1775 156.382 19.231L153.062 37H145L149.549 12.5547H157.588L157.349 13.8634C160.924 12.3313 162.73 12 165.047 12C170.036 12 172 14.2033 172 17.9859C172 18.7524 171.899 19.8059 171.798 20.4762L168.745 37H160.67Z" fill="#02142E"/>
<path fill-rule="evenodd" clip-rule="evenodd" d="M200 12.1675H190.708L183.271 23.1306L187.167 1H179.301L173 37H180.83L182.891 25.2974L187.755 37H196.095L191.187 25.1751L200 12.1675Z" fill="#02142E"/>
<path fill-rule="evenodd" clip-rule="evenodd" d="M136.419 12C134.799 12 130.508 12.2516 128.279 12.5988L127.22 18.5024C128.949 18.1503 132.44 18.0138 133.296 18.0138C136.024 18.0138 136.867 19.0818 136.867 20.6335C136.867 21.1192 136.622 22.7197 136.622 22.7197C134.688 22.5266 133.051 22.43 131.961 22.43C124.67 22.43 121.842 25.631 121.149 30.2394C121.049 30.9182 121 31.5483 121 32.1315C121 35.7675 123.032 38 127.397 38C129.319 38 131.468 37.1778 134.244 35.945L133.983 37.3202H141.93L144.702 21.9911C144.951 20.5847 145 19.1296 145 18.403C145 14.0852 142.619 12 136.419 12ZM134.986 31.8399C133.299 32.5675 132.209 32.8094 131.265 32.8094C129.678 32.8094 129.035 31.9852 129.035 30.8704C129.035 30.6763 129.035 30.4813 129.084 30.2394C129.283 28.9296 130.027 27.6197 132.407 27.6197C133.348 27.6197 134.341 27.7172 135.679 27.9123L134.986 31.8399Z" fill="#02142E"/>
<path fill-rule="evenodd" clip-rule="evenodd" d="M63.2863 30.8472L62 38L78.6023 29.7674L80 22L63.2863 30.8472Z" fill="#9DABAF"/>
<path fill-rule="evenodd" clip-rule="evenodd" d="M89 16.9088L67.6336 6L66 14.9818L87.5255 25L89 16.9088Z" fill="#9DABAF"/>
<path fill-rule="evenodd" clip-rule="evenodd" d="M93.8954 46.2841C95.2282 46.2841 95.7997 46.9367 95.7997 47.9528C95.7997 49.4237 95.1997 51 93.0477 51C91.6653 51 91 50.3474 91 49.0612C91 48.8163 91.0274 48.3986 91.0938 47.9729C91.5135 45.3604 92.4656 44.5623 94.1421 44.3072C94.8475 44.2078 95.361 44.1546 95.9905 44L96 44.6355C95.4095 44.7882 94.8275 44.8333 94.1801 44.9327C92.8083 45.1606 92.3423 45.7038 92.0755 46.7289C92.7619 46.4488 93.3998 46.2841 93.8954 46.2841ZM95.0384 48C95.0384 47.247 94.6282 46.8645 93.771 46.8645C93.2469 46.8645 92.8283 46.9749 91.9711 47.2821C91.8846 47.6627 91.8762 47.9277 91.8182 48.243C91.7613 48.5432 91.7613 48.8886 91.7613 49.0412C91.7613 49.9116 92.1704 50.4197 93.1331 50.4197C94.7421 50.4197 95.0384 48.996 95.0384 48Z" fill="#02142E"/>
<path fill-rule="evenodd" clip-rule="evenodd" d="M96 51L96.8462 46.288H97.5955L96.7493 51H96ZM96.9707 45.2105L97.1921 44H98L97.7786 45.2105H96.9707Z" fill="#02142E"/>
<path fill-rule="evenodd" clip-rule="evenodd" d="M101.461 50.8544L102.164 46.6235H100.31L100.235 47.0723C99.8378 49.4595 99.3552 50.3387 98.3901 51L98 50.4542C98.808 49.9083 99.2064 49.2557 99.578 47.0539L99.7546 46H103L102.184 50.8544H101.461Z" fill="#02142E"/>
<path fill-rule="evenodd" clip-rule="evenodd" d="M105.234 47.7189C105.624 47.6411 106.004 47.6032 106.293 47.6032C107.554 47.6032 108 48.2086 108 48.9416C108 49.0681 107.99 49.1654 107.972 49.3027C107.842 50.2108 107.286 51 105.81 51C105.373 51 104.743 50.9222 104 50.7178L104.798 46H105.522L105.234 47.7189ZM105.123 48.3654L104.807 50.24C105.225 50.3481 105.578 50.3751 105.875 50.3751C106.756 50.3751 107.137 49.947 107.23 49.3027C107.247 49.2032 107.247 49.1362 107.247 49.0476C107.247 48.56 106.933 48.2281 106.181 48.2281C105.884 48.2281 105.55 48.2573 105.123 48.3654Z" fill="#02142E"/>
<path fill-rule="evenodd" clip-rule="evenodd" d="M115.178 50H109L109.822 46H110.558L109.84 49.4862H111.824L112.542 46H113.279L112.561 49.4862H114.544L115.264 46H116L115.178 50Z" fill="#02142E"/>
<path fill-rule="evenodd" clip-rule="evenodd" d="M119.542 50.1263L119.593 50.7347C118.797 50.9632 118.204 51 117.83 51C116.602 51 116 50.3916 116 49.2421C116 49.0716 116.018 48.7758 116.052 48.5C116.271 46.8084 117.111 46 118.382 46C119.568 46 120 46.6853 120 47.6926C120 47.9495 119.983 48.301 119.949 48.5L119.924 48.6632H116.704C116.688 48.8337 116.688 49.0042 116.688 49.1274C116.688 49.9747 117.052 50.3916 117.949 50.3916C118.416 50.3916 118.805 50.3547 119.542 50.1263ZM116.797 48.0621H119.331C119.34 47.9389 119.34 47.8158 119.34 47.7032C119.34 47.0368 119.076 46.6095 118.296 46.6095C117.416 46.6095 116.975 47.2463 116.797 48.0621Z" fill="#02142E"/>
<path fill-rule="evenodd" clip-rule="evenodd" d="M127.36 50L127.748 48.1929H125.163L124.775 50H124L124.864 46H125.64L125.282 47.6791H127.867L128.225 46H129L128.136 50H127.36Z" fill="#02142E"/>
<path fill-rule="evenodd" clip-rule="evenodd" d="M129 51L129.846 46.288H130.596L129.749 51H129ZM129.971 45.2105L130.192 44H131L130.779 45.2105H129.971Z" fill="#02142E"/>
<path fill-rule="evenodd" clip-rule="evenodd" d="M133.977 47.9287L131.729 50L131 49.8408L133.188 47.8115L131.927 46H132.708L133.977 47.9287ZM134.63 46H135.298L134.543 49.9361H133.875L134.63 46ZM137.151 46H138L136.028 47.8902L137.478 49.8644L136.757 49.9755L135.221 47.8657L137.151 46Z" fill="#02142E"/>
<path fill-rule="evenodd" clip-rule="evenodd" d="M144.36 50L145.116 46.5138H142.531L141.775 50H141L141.864 46H146L145.136 50H144.36Z" fill="#02142E"/>
<path fill-rule="evenodd" clip-rule="evenodd" d="M146.723 52H146L147.142 46.1166H147.819L147.762 46.3862C148.329 46.1604 148.829 46 149.386 46C150.379 46 151 46.4048 151 47.458C151 47.6856 150.982 47.9207 150.935 48.2155C150.666 49.8591 149.868 50.431 148.663 50.431C148.143 50.431 147.633 50.2966 147.095 50.0522L146.723 52ZM147.207 49.5224C147.753 49.7659 148.152 49.8918 148.607 49.8918C149.479 49.8918 149.988 49.5056 150.193 48.2155C150.23 47.9552 150.249 47.7528 150.249 47.5578C150.249 46.8097 149.85 46.5401 149.155 46.5401C148.7 46.5401 148.301 46.6651 147.708 46.9095L147.207 49.5224Z" fill="#02142E"/>
<path fill-rule="evenodd" clip-rule="evenodd" d="M153.683 51C152.577 51 152 50.4126 152 49.1558C152 48.9568 152.016 48.7389 152.048 48.5C152.256 46.7979 153.035 46 154.317 46C155.422 46 156 46.5989 156 47.8632C156 48.0621 155.992 48.2726 155.96 48.5C155.744 50.2032 154.966 51 153.683 51ZM152.65 49.08C152.65 49.9358 152.986 50.3916 153.764 50.3916C154.702 50.3916 155.158 49.7274 155.319 48.5C155.343 48.301 155.358 48.1095 155.358 47.9389C155.358 47.0737 155.022 46.6095 154.236 46.6095C153.299 46.6095 152.842 47.2726 152.689 48.5C152.665 48.7105 152.65 48.9095 152.65 49.08Z" fill="#02142E"/>
<path fill-rule="evenodd" clip-rule="evenodd" d="M159.628 46C159.946 46 160.4 46.0558 161 46.2L160.782 46.8737C160.292 46.6853 159.855 46.6095 159.564 46.6095C158.501 46.6095 157.964 47.1705 157.783 48.5C157.747 48.7568 157.738 49.0516 157.738 49.1558C157.738 50.0032 158.164 50.3916 159.028 50.3916C159.318 50.3916 159.764 50.3158 160.31 50.1263L160.319 50.8011C159.691 50.9453 159.228 51 158.91 51C157.665 51 157 50.4495 157 49.2716C157 49.1274 157.01 48.7947 157.055 48.5C157.31 46.7695 158.129 46 159.628 46Z" fill="#02142E"/>
<path fill-rule="evenodd" clip-rule="evenodd" d="M166 46L165.901 46.5138H164.3L163.619 50H162.917L163.6 46.5138H162L162.099 46H166Z" fill="#02142E"/>
<path fill-rule="evenodd" clip-rule="evenodd" d="M167.683 51C166.577 51 166 50.4126 166 49.1558C166 48.9568 166.015 48.7389 166.047 48.5C166.256 46.7979 167.034 46 168.316 46C169.422 46 170 46.5989 170 47.8632C170 48.0621 169.992 48.2726 169.96 48.5C169.743 50.2032 168.966 51 167.683 51ZM166.649 49.08C166.649 49.9358 166.985 50.3916 167.763 50.3916C168.702 50.3916 169.158 49.7274 169.318 48.5C169.342 48.301 169.358 48.1095 169.358 47.9389C169.358 47.0737 169.022 46.6095 168.236 46.6095C167.298 46.6095 166.841 47.2726 166.689 48.5C166.665 48.7105 166.649 48.9095 166.649 49.08Z" fill="#02142E"/>
<path fill-rule="evenodd" clip-rule="evenodd" d="M176.895 46.2841C178.229 46.2841 178.801 46.9367 178.801 47.9528C178.801 49.4237 178.2 51 176.048 51C174.666 51 174 50.3474 174 49.0612C174 48.8163 174.027 48.3986 174.095 47.9729C174.513 45.3604 175.467 44.5623 177.143 44.3072C177.848 44.2078 178.362 44.1546 178.991 44L179 44.6355C178.411 44.7882 177.829 44.8333 177.181 44.9327C175.809 45.1606 175.343 45.7038 175.076 46.7289C175.762 46.4488 176.4 46.2841 176.895 46.2841ZM178.038 48C178.038 47.247 177.628 46.8645 176.771 46.8645C176.248 46.8645 175.828 46.9749 174.971 47.2821C174.886 47.6627 174.876 47.9277 174.818 48.243C174.762 48.5432 174.762 48.8886 174.762 49.0412C174.762 49.9116 175.17 50.4197 176.134 50.4197C177.743 50.4197 178.038 48.996 178.038 48Z" fill="#02142E"/>
<path fill-rule="evenodd" clip-rule="evenodd" d="M181.072 48.0253C181.381 48.0253 181.733 48.0621 182.195 48.12L182.259 47.7105C182.277 47.6063 182.285 47.4253 182.285 47.3305C182.285 46.9211 182.077 46.6095 181.39 46.6095C181.045 46.6095 180.485 46.7326 179.905 46.921L179.887 46.2474C180.638 46.0768 181.181 46 181.498 46C182.638 46 183 46.5621 183 47.2253C183 47.3779 182.983 47.5589 182.964 47.6926L182.44 50.8684H181.77L181.816 50.6116C181.19 50.9158 180.783 51 180.33 51C179.389 51 179 50.5168 179 49.88C179 49.7653 179.009 49.6516 179.026 49.5368C179.162 48.7179 179.678 48.0253 181.072 48.0253ZM179.751 49.5463C179.741 49.6232 179.733 49.6884 179.733 49.7568C179.733 50.1368 179.978 50.3916 180.529 50.3916C180.973 50.3916 181.354 50.2789 181.869 50.0221L182.086 48.7179C181.652 48.6632 181.354 48.6337 181.036 48.6337C180.086 48.6337 179.833 49.0326 179.751 49.5463Z" fill="#02142E"/>
<path fill-rule="evenodd" clip-rule="evenodd" d="M187.36 50L187.749 48.1929H185.163L184.776 50H184L184.864 46H185.641L185.282 47.6791H187.867L188.225 46H189L188.136 50H187.36Z" fill="#02142E"/>
<path fill-rule="evenodd" clip-rule="evenodd" d="M190.627 49.9604H190L190.708 46H191.336L190.627 49.9604ZM192.753 50L191.256 47.8447L193.138 46H194L192.02 47.886L193.477 49.9208L192.753 50Z" fill="#02142E"/>
</svg>
