<svg width="260" height="70" viewBox="0 0 260 70" fill="none" xmlns="http://www.w3.org/2000/svg">
<path d="M14.0649 44.3934C15.6362 44.3934 16.989 44.1265 18.1224 43.5926C19.2557 43.0318 20.4408 42.1507 21.677 40.9489L24.6138 44.0732C21.7546 47.3579 18.277 49 14.181 49C10.1109 49 6.72354 47.6383 4.01841 44.9144C1.33964 42.1905 0 38.746 0 34.5802C0 30.4144 1.36549 26.9429 4.09596 24.1653C6.85228 21.3886 10.3172 20 14.4902 20C18.6891 20 22.1925 21.6017 25 24.8063L22.1023 28.091C20.8143 26.8095 19.5908 25.9144 18.4316 25.4074C17.2977 24.8999 15.9586 24.6464 14.4126 24.6464C11.6822 24.6464 9.38964 25.5673 7.53502 27.4101C5.67991 29.226 4.75285 31.5624 4.75285 34.4198C4.75285 37.2503 5.66723 39.627 7.496 41.5495C9.35111 43.4456 11.5408 44.3934 14.0649 44.3934Z" fill="#1C1C1E"/>
<path d="M49.3954 27.3005C47.5306 25.3215 45.2321 24.332 42.5 24.332C39.7684 24.332 37.4565 25.3215 35.5653 27.3005C33.6999 29.279 32.7675 31.6859 32.7675 34.5202C32.7675 37.3276 33.6999 39.721 35.5653 41.7C37.4565 43.6785 39.7684 44.668 42.5 44.668C45.2321 44.668 47.5306 43.6785 49.3954 41.7C51.2866 39.721 52.2325 37.3276 52.2325 34.5202C52.2325 31.6859 51.2866 29.279 49.3954 27.3005ZM52.8233 44.8685C50.0389 47.623 46.5977 49 42.5 49C38.4023 49 34.9611 47.623 32.1767 44.8685C29.3924 42.0875 28 38.6383 28 34.5202C28 30.3752 29.3924 26.926 32.1767 24.1714C34.9611 21.391 38.4023 20 42.5 20C46.5977 20 50.0389 21.391 52.8233 24.1714C55.6081 26.926 57 30.3752 57 34.5202C57 38.6383 55.6081 42.0875 52.8233 44.8685Z" fill="#1C1C1E"/>
<path d="M66.6364 48H62V20H69.2293L77.5198 37.5852L85.8098 20H93V48H88.3636V26.1289L78.7769 45.5569H76.184L66.6364 26.1289V48Z" fill="#1C1C1E"/>
<path d="M102 20H107V48H102V20Z" fill="#4480DB"/>
<path d="M134.405 20H139V48H134.016L118.595 27.5709V48H114V20H118.595L134.405 40.9102V20Z" fill="#4480DB"/>
<path d="M160.065 48H148V20H158.723C160.59 20 162.194 20.2269 163.534 20.6811C164.901 21.1349 165.913 21.7495 166.57 22.524C167.832 23.9657 168.463 25.5951 168.463 27.4106C168.463 29.6004 167.78 31.2293 166.412 32.2977C165.913 32.6715 165.571 32.9118 165.387 33.0185C165.203 33.0989 164.875 33.2459 164.402 33.4594C166.11 33.8332 167.464 34.6211 168.463 35.8225C169.488 36.9976 170 38.4666 170 40.229C170 42.1786 169.343 43.9008 168.029 45.3966C166.478 47.1322 163.823 48 160.065 48ZM152.652 31.6165H158.566C161.93 31.6165 163.613 30.4553 163.613 28.1319C163.613 26.7965 163.205 25.8353 162.391 25.2475C161.576 24.6602 160.315 24.3663 158.606 24.3663H152.652V31.6165ZM152.652 43.6337H159.946C161.655 43.6337 162.956 43.3666 163.85 42.8329C164.77 42.2719 165.23 41.2304 165.23 39.7082C165.23 37.2245 163.272 35.9828 159.355 35.9828H152.652V43.6337Z" fill="#1C1C1E"/>
<path d="M179.66 41.631L176.924 48H172L184.038 20H188.963L201 48H196.076L193.34 41.631H179.66ZM191.463 37.2647L186.501 25.7281L181.537 37.2647H191.463Z" fill="#1C1C1E"/>
<path d="M224.405 20H229V48H224.016L208.595 27.5709V48H204V20H208.595L224.405 40.9102V20Z" fill="#1C1C1E"/>
<path d="M237 20H241.584V33.6594L254.017 20H259.844L248.928 32.2574L260 48H254.561L245.547 35.7426L241.584 40.1491V48H237V20Z" fill="#1C1C1E"/>
<path fill-rule="evenodd" clip-rule="evenodd" d="M119.027 0.0325313C129.359 -0.415358 138.823 3.79131 145.451 10.8173C146.677 12.1178 145.709 14.1462 143.934 14.1611C143.32 14.1662 142.735 13.9037 142.306 13.4574C136.47 7.38778 128.209 3.76665 119.2 4.15702C119.123 4.1601 119.046 4.16369 118.968 4.1678C117.761 4.22944 116.699 3.29154 116.689 2.06601C116.68 1.0146 117.457 0.120363 118.493 0.0597541C118.671 0.0494812 118.849 0.0402359 119.027 0.0325313ZM97.0662 55.8389C95.2911 55.8538 94.3227 57.8816 95.5492 59.1827C102.177 66.2087 111.641 70.4154 121.973 69.9675C122.151 69.9598 122.328 69.951 122.505 69.9402C123.541 69.8796 124.317 68.9854 124.309 67.934C124.299 66.7085 123.237 65.7711 122.03 65.8322C121.954 65.8363 121.877 65.8399 121.799 65.843C112.791 66.2333 104.53 62.6122 98.6943 56.5426C98.2664 56.0963 97.6812 55.8338 97.0662 55.8389Z" fill="#F08E35"/>
</svg>
