<svg width="280" height="34" viewBox="0 0 280 34" fill="none" xmlns="http://www.w3.org/2000/svg">
<g clip-path="url(#clip0_225_315)">
<path d="M239.587 9C241.029 9 242.471 9 243.913 9C243.913 11.5889 243.913 14.1771 243.913 16.7646C247.163 16.7578 250.417 16.7861 253.667 16.751C253.656 14.167 253.667 11.584 253.667 9C255.111 9 256.555 9 258 9C258 15.3325 258 21.6649 258 27.9974C256.56 28.0033 255.111 27.9974 253.668 27.9974C253.66 25.9224 253.68 23.8474 253.658 21.7734C250.411 21.7822 247.164 21.7734 243.918 21.7783C243.918 23.8513 243.918 25.924 243.918 27.9964C242.475 27.9964 241.033 27.9964 239.592 27.9964C239.592 25.9234 239.592 23.8503 239.592 21.7773C239.06 21.7685 238.529 21.79 238 21.7665C238.009 20.0989 238 18.4323 238 16.7656C238.529 16.7588 239.056 16.7656 239.589 16.7656C239.59 14.1768 239.589 11.5882 239.587 9Z" fill="#09A5DE"/>
<path d="M261.004 9C262.375 9 263.739 9.00585 265.106 9.00585V17.495H272.747C273.523 17.5116 274.174 16.8188 274.188 16.0606C274.201 13.7988 274.188 11.537 274.188 9.27614C275.693 9.26541 277.2 9.27614 278.705 9.27614C278.705 11.8014 278.705 14.3267 278.705 16.8519C278.607 17.8131 278.388 18.7908 277.88 19.6251C277.488 20.2496 276.932 20.7557 276.273 21.0887C277.48 23.1833 278.692 25.2757 279.91 27.3658C279.974 27.4645 280.005 27.5804 279.999 27.6975C278.345 27.6975 276.691 27.6975 275.038 27.6975C273.775 25.5264 272.527 23.3466 271.254 21.1824C269.126 21.1911 266.999 21.1824 264.872 21.1824V28C263.581 28 262.29 28 261 28C261.001 21.6654 261.003 15.332 261.004 9Z" fill="#09A5DE"/>
<path d="M216 27.9147C218.866 21.6098 221.732 15.3049 224.599 9H229.348C230.394 11.5665 231.435 14.1347 232.47 16.7046C233.614 16.7046 234.759 16.7046 235.903 16.7046C235.912 18.4097 235.903 20.1149 235.903 21.8201C235.422 21.8201 234.942 21.8201 234.463 21.8201C235.64 23.8814 236.819 25.9414 238 28C236.154 28 234.309 28 232.466 28C231.441 25.9764 230.409 23.9558 229.402 21.9242C227.555 21.8806 225.704 21.9242 223.856 21.9044C224.55 20.2895 225.264 18.6835 225.944 17.0626C226.576 17.0299 227.211 17.0706 227.844 17.0696C227.516 16.0102 227.188 14.9508 226.853 13.8953C224.867 18.5694 222.879 23.2422 220.888 27.9137C219.261 27.9157 217.631 27.916 216 27.9147Z" fill="#09A5DE"/>
<path d="M199 10C205.001 10 211 10 217 10C216.119 11.5878 215.235 13.1735 214.348 14.7568C210.577 14.762 206.805 14.762 203.034 14.7568C203.034 15.4341 203.034 16.1113 203.034 16.7885C206.752 16.7885 210.47 16.7885 214.188 16.7885C215.368 17.5319 216.172 18.7779 216.579 20.093C217.444 22.8748 216.563 26.2014 214.211 28C209.141 27.9955 204.072 27.9955 199.004 28C199 22.0003 198.999 16.0003 199 10ZM203.023 20.8067C203.018 21.9223 203.023 23.0379 203.023 24.1525C205.912 24.1525 208.802 24.1525 211.692 24.1525C212.087 23.8983 212.269 23.4177 212.397 22.9832C212.54 22.3789 212.558 21.6652 212.159 21.1511C212.01 20.9871 211.821 20.8038 211.586 20.8153C208.729 20.8141 205.874 20.8112 203.023 20.8067Z" fill="#09A5DE"/>
<path d="M0 8.55423C4.99802 5.69891 9.99802 2.8475 15 0C14.9011 0.332241 14.7091 0.626372 14.5479 0.931253C12.686 4.37418 10.8244 7.81646 8.9632 11.2581C8.79148 11.5571 8.63627 11.865 8.49822 12.1805C5.65888 13.7743 2.83241 15.3945 0 17V8.55423Z" fill="#01609F"/>
<path d="M15.03 0C15.1929 0.256806 15.3376 0.526273 15.4627 0.806136C17.1845 4.23803 18.9045 7.67089 20.6227 11.1047C20.7664 11.3954 20.94 11.6735 21 12C19 10.7743 16.9955 9.55931 15 8.31813C15.0355 5.54606 14.9873 2.77206 15.03 0Z" fill="#01609F"/>
<path d="M15.0064 14C17.0056 15.1451 19.0035 16.2922 21 17.4413C19.0256 22.9619 17.0622 28.4864 15.0679 34C15.0195 33.8892 14.9965 33.7691 15.0004 33.6484C15.0074 27.0986 14.9955 20.5498 15.0064 14Z" fill="#01609F"/>
<path d="M0 23.0072C3.01576 21.3359 6.04235 19.6845 9.05121 18C11.0322 23.3333 13.0151 28.6667 15 34C9.99672 31.2542 4.99934 28.481 0 25.7172V23.0072Z" fill="#01609F"/>
<path d="M9 17.4217C10.8837 16.2622 12.7899 15.1419 14.683 14L14.6981 14.0078C14.6877 20.4793 14.6981 26.9498 14.6924 33.4213C14.6887 33.5406 14.7105 33.6592 14.7563 33.7687C16.6418 28.321 18.4983 22.8625 20.3652 17.409C23.2409 19.1442 26.1299 20.858 29 22.601C29 23.5437 29 24.4872 29 25.4312C24.2518 28.2917 19.4857 31.1258 14.7431 34H14.6924L14.669 33.9873C12.7874 28.4654 10.8978 22.9435 9 17.4217Z" fill="#09A5DE"/>
<path d="M14.3189 0H14.43C19.2861 2.85654 24.1421 5.70789 28.9981 8.55405C28.9981 11.3694 29.0048 14.1847 28.9933 17C26.2205 15.4039 23.468 13.7737 20.701 12.1679C20.6377 11.8397 20.4547 11.5593 20.3033 11.2681C18.4918 7.81816 16.6788 4.36791 14.8642 0.91734C14.7317 0.635999 14.5785 0.365165 14.4061 0.10712C14.361 2.89322 14.4118 5.68127 14.3812 8.46835C12.2525 9.70316 10.1373 10.9643 8 12.1835C8.13374 11.869 8.28411 11.5621 8.45046 11.2642C10.2555 7.83439 12.0596 4.40427 13.8627 0.973821C14.0189 0.669989 14.2029 0.376869 14.3007 0.0457696C14.3055 0.0331099 14.3141 0.010712 14.3189 0Z" fill="#09A5DE"/>
<path d="M156.405 10.0078C158.508 10.001 160.609 10.0147 162.713 10C165.826 15.9896 168.9 22.0007 172 28C170.555 28 169.111 28 167.667 28C167.128 26.9155 166.601 25.8262 166.064 24.7407C161.698 24.7407 157.331 24.7407 152.965 24.7407C152.432 25.8275 151.899 26.9129 151.365 27.9971C149.909 27.9971 148.454 27.9971 147 27.9971C150.133 22.0007 153.268 16.0042 156.405 10.0078ZM158.619 13.271C157.27 16.0261 155.921 18.7818 154.573 21.5381C157.867 21.5381 161.162 21.5381 164.457 21.5381C163.118 18.7818 161.777 16.0261 160.434 13.271C159.833 13.2691 159.223 13.272 158.619 13.271Z" fill="#002039"/>
<path d="M180.302 10C185.202 10 190.101 10 195 10C195 15.946 195 21.8921 195 27.8381C193.719 27.8381 192.438 27.8381 191.157 27.8381C191.153 22.952 191.153 18.0659 191.157 13.1798C188.554 13.1798 185.95 13.1798 183.343 13.1798C183.201 14.6289 183.058 16.0785 182.915 17.5288C182.747 19.5405 182.461 21.5763 181.671 23.4425C181.091 24.7998 180.26 26.1241 179.004 26.9326C177.747 27.7547 176.219 28.0184 174.746 27.999H173C173 26.9491 173 25.8992 173 24.8492C173.966 24.8376 174.961 24.919 175.892 24.5962C176.887 24.2702 177.716 23.5574 178.198 22.6127C178.992 21.1139 179.213 19.3941 179.401 17.7266C179.701 15.1511 180.001 12.5755 180.302 10Z" fill="#002039"/>
<path d="M35.0009 10H38.7476V16.9684H46.0414C46.7345 16.9684 47.4444 16.9213 48.0989 16.6607C48.677 16.4246 49.0876 15.8994 49.3832 15.3507C50.3519 13.5688 51.3205 11.7862 52.2891 10.0029C53.6827 9.99706 55.0763 10.0029 56.4699 10.0029C55.2144 12.3192 53.9589 14.6345 52.7034 16.9488C52.2825 17.6885 51.7495 18.4283 50.9642 18.7702C51.8983 18.9456 52.6591 19.6521 53.1045 20.5055C54.4058 23.002 55.7043 25.5002 57 28C55.6102 28 54.2203 28 52.8305 28C51.806 26.0345 50.8032 24.0563 49.7853 22.0869C49.4501 21.448 48.9379 20.8876 48.2787 20.6172C47.5113 20.3017 46.6714 20.2654 45.8559 20.2576H38.7797C38.7797 22.8286 38.7797 25.3999 38.7797 27.9716C37.5198 27.9716 36.2602 27.9716 35.0009 27.9716C34.9997 21.9811 34.9997 15.9905 35.0009 10Z" fill="#002039"/>
<path d="M60.001 10C64.7311 10 69.4612 10 74.1913 10C75.5833 10 77.0136 10.393 78.1134 11.294C78.6837 11.7935 79.1456 12.4101 79.4692 13.1039C79.7928 13.7978 79.9709 14.5535 79.9921 15.3224C80.0333 16.1171 79.9127 16.9118 79.6381 17.6561C79.3635 18.4004 78.9408 19.0779 78.397 19.6455C77.3432 20.7764 75.7691 21.1911 74.2861 21.2038C70.7931 21.2038 67.3011 21.1822 63.8091 21.1802C63.8091 23.4538 63.8091 25.7271 63.8091 28C62.5401 28 61.2703 28 60 28C60 22 60.0003 16 60.001 10ZM63.8091 13.2237C63.8091 14.7912 63.8091 16.3586 63.8091 17.9261C67.0766 17.9261 70.3448 17.9261 73.6136 17.9261C74.0685 17.9478 74.5223 17.8642 74.9414 17.6814C75.475 17.4348 75.8496 16.92 76.0508 16.3688C76.187 15.9651 76.2163 15.5317 76.1359 15.1126C76.0555 14.6935 75.8681 14.3038 75.5929 13.9832C75.1397 13.4182 74.3915 13.2257 73.7065 13.2286C70.4071 13.2234 67.1079 13.2217 63.8091 13.2237Z" fill="#002039"/>
<path d="M83.0008 10.001H86.9756C86.9756 14.3516 86.9756 18.7022 86.9756 23.0528C91.4852 18.7022 95.9944 14.3512 100.503 10H103.999C103.999 16.0001 104.004 21.9992 103.993 27.9993C102.69 27.9993 101.388 27.9993 100.086 27.9993C100.086 23.6382 100.086 19.2774 100.086 14.917C95.5977 19.2676 91.112 23.6202 86.6287 27.9747C85.4256 28.0248 84.2098 27.9826 83.0018 27.9963C82.9998 21.9992 82.9995 16.0007 83.0008 10.001Z" fill="#002039"/>
<path d="M111.581 11.2914C112.831 10.4381 114.302 9.98826 115.805 10.0002C119.87 10.0002 123.934 10.0002 128 10.0002V18.052H124.41C124.381 16.4825 124.358 14.912 124.328 13.3415C121.618 13.3415 118.908 13.3415 116.199 13.3415C114.968 13.3356 113.787 13.9402 112.975 14.869C112.14 15.7675 111.767 17.0275 111.791 18.2503C111.818 19.3969 111.677 20.5836 112.062 21.6872C112.285 22.3394 112.645 22.9336 113.118 23.4278C113.59 23.922 114.163 24.304 114.796 24.5469C115.487 24.8136 116.231 24.7677 116.959 24.7677C120.575 24.7677 124.192 24.7677 127.81 24.7677V27.9907C123.68 28.0031 119.551 28.0031 115.422 27.9907C113.729 27.9907 112.075 27.3168 110.784 26.22C109.617 25.2736 108.698 23.9834 108.297 22.5086C107.878 21.0914 108.035 19.5991 108.005 18.1428C107.969 16.9786 108.134 15.7988 108.608 14.7244C109.226 13.3063 110.324 12.147 111.581 11.2914Z" fill="#002039"/>
<path d="M130 10H151C151 11.0828 151 12.1645 151 13.2453C148.113 13.2453 145.227 13.2453 142.341 13.2453C142.341 18.1639 142.341 23.0821 142.341 28C141.061 28 139.78 28 138.5 28C138.5 23.0815 138.5 18.1629 138.5 13.2444C135.669 13.2444 132.839 13.2444 130.008 13.2444C130.002 12.1636 129.999 11.0821 130 10Z" fill="#002039"/>
</g>
<defs>
<clipPath id="clip0_225_315">
<rect width="280" height="34" fill="white"/>
</clipPath>
</defs>
</svg>
